<svg xmlns="http://www.w3.org/2000/svg" viewBox="0 0 128 128" width="128" height="128" role="img" aria-labelledby="sq-title">
  <title id="sq-title">excel-analytics icon</title>
  <defs>
    <linearGradient id="sg1" x1="0%" y1="0%" x2="100%" y2="100%">
      <stop offset="0%" stop-color="#16a34a"></stop>
      <stop offset="100%" stop-color="#06b6d4"></stop>
    </linearGradient>
    <linearGradient id="sb" x1="0%" y1="0%" x2="100%" y2="100%">
      <stop offset="0%" stop-color="#ffd166"></stop>
      <stop offset="100%" stop-color="#ff3d00"></stop>
    </linearGradient>
  </defs>

  <rect x="8" y="8" width="112" height="112" rx="18" fill="url(#sg1)"></rect>
  <!-- small grid -->
  <g transform="translate(24,30)" stroke="rgba(255,255,255,0.9)" stroke-width="1">
    <line x1="0" y1="0" x2="56" y2="0"></line>
    <line x1="0" y1="14" x2="56" y2="14"></line>
    <line x1="0" y1="28" x2="56" y2="28"></line>
    <line x1="0" y1="0" x2="0" y2="28"></line>
    <line x1="14" y1="0" x2="14" y2="28"></line>
    <line x1="28" y1="0" x2="28" y2="28"></line>
    <line x1="42" y1="0" x2="42" y2="28"></line>
    <line x1="56" y1="0" x2="56" y2="28"></line>
  </g>

  <!-- bolt -->
  <path d="M84 22 L60 74 L74 74 L56 106 L108 38 L88 38 L104 22 Z" fill="url(#sb)" stroke="rgba(0,0,0,0.06)" stroke-width="0.6"></path>
</svg>
