<svg xmlns="http://www.w3.org/2000/svg" viewBox="0 0 400 120" width="400" height="120" role="img" aria-labelledby="title-desc">
  <title id="title">excel-analytics</title>
  <desc id="desc">Logo: a stylized spreadsheet icon with a lightning bolt (Vite-style) and the text "excel-analytics".</desc>

  <!-- Definitions: gradients -->
  <defs>
    <linearGradient id="g1" x1="0%" y1="0%" x2="100%" y2="100%">
      <stop offset="0%" stop-color="#16a34a"></stop>
      <stop offset="50%" stop-color="#059669"></stop>
      <stop offset="100%" stop-color="#06b6d4"></stop>
    </linearGradient>

    <linearGradient id="boltGrad" x1="0%" y1="0%" x2="100%" y2="100%">
      <stop offset="0%" stop-color="#ffd166"></stop>
      <stop offset="60%" stop-color="#ff7b00"></stop>
      <stop offset="100%" stop-color="#ff3d00"></stop>
    </linearGradient>

    <filter id="softShadow" x="-50%" y="-50%" width="200%" height="200%">
      <feDropShadow dx="0" dy="6" stdDeviation="8" flood-color="#000" flood-opacity="0.12"></feDropShadow>
    </filter>
  </defs>

  <!-- Icon background rounded rect -->
  <g transform="translate(16,10)" filter="url(#softShadow)">
    <rect x="0" y="0" width="96" height="96" rx="14" fill="url(#g1)"></rect>
    <!-- sheet fold (top-right) -->
    <path d="M72 0 L96 0 L96 24 L72 24 Z" fill="rgba(255,255,255,0.12)"></path>

    <!-- grid lines to suggest spreadsheet -->
    <g transform="translate(12,18)" opacity="0.9" stroke="rgba(255,255,255,0.85)" stroke-width="1">
      <line x1="0" y1="0" x2="60" y2="0"></line>
      <line x1="0" y1="16" x2="60" y2="16"></line>
      <line x1="0" y1="32" x2="60" y2="32"></line>
      <line x1="0" y1="48" x2="60" y2="48"></line>
      <line x1="0" y1="0" x2="0" y2="48"></line>
      <line x1="16" y1="0" x2="16" y2="48"></line>
      <line x1="32" y1="0" x2="32" y2="48"></line>
      <line x1="48" y1="0" x2="48" y2="48"></line>
      <line x1="60" y1="0" x2="60" y2="48"></line>
    </g>

    <!-- lightning bolt (Vite-like) -->
    <path d="M56 12 L36 52 L50 52 L34 84 L74 38 L58 38 L76 12 Z" fill="url(#boltGrad)" stroke="rgba(0,0,0,0.08)" stroke-width="0.6" transform="translate(0,0)"></path>
  </g>

  <!-- Text: excel-analytics -->
  <g transform="translate(128, 62)">
    <text x="0" y="-8" font-family="Inter, system-ui, -apple-system, 'Segoe UI', Roboto, 'Helvetica Neue', Arial" font-weight="700" font-size="28" fill="#0f172a">excel-analytics</text>
    <text x="0" y="16" font-family="Inter, system-ui, -apple-system, 'Segoe UI', Roboto, 'Helvetica Neue', Arial" font-weight="400" font-size="12" fill="#475569">Excel file analytics &amp; visualizations</text>
  </g>
</svg>
